<svg width="21" height="20" viewBox="0 0 21 20" fill="none" xmlns="http://www.w3.org/2000/svg">
<g id="Happy">
<path id="Vector" d="M6.80769 8.46154C6.80769 8.27897 6.86183 8.1005 6.96326 7.9487C7.06469 7.7969 7.20886 7.67859 7.37753 7.60873C7.5462 7.53886 7.7318 7.52058 7.91085 7.5562C8.08991 7.59181 8.25439 7.67973 8.38349 7.80882C8.51258 7.93792 8.60049 8.10239 8.63611 8.28145C8.67173 8.46051 8.65345 8.64611 8.58358 8.81478C8.51372 8.98345 8.3954 9.12762 8.24361 9.22905C8.09181 9.33048 7.91334 9.38461 7.73077 9.38461C7.48596 9.38461 7.25117 9.28736 7.07806 9.11425C6.90495 8.94114 6.80769 8.70635 6.80769 8.46154ZM13.2692 9.38461C13.4518 9.38461 13.6303 9.33048 13.7821 9.22905C13.9339 9.12762 14.0522 8.98345 14.122 8.81478C14.1919 8.64611 14.2102 8.46051 14.1746 8.28145C14.139 8.10239 14.051 7.93792 13.9219 7.80882C13.7929 7.67973 13.6284 7.59181 13.4493 7.5562C13.2703 7.52058 13.0847 7.53886 12.916 7.60873C12.7473 7.67859 12.6032 7.7969 12.5017 7.9487C12.4003 8.1005 12.3462 8.27897 12.3462 8.46154C12.3462 8.70635 12.4434 8.94114 12.6165 9.11425C12.7896 9.28736 13.0244 9.38461 13.2692 9.38461ZM18.5 10C18.5 11.5822 18.0308 13.129 17.1518 14.4446C16.2727 15.7602 15.0233 16.7855 13.5615 17.391C12.0997 17.9965 10.4911 18.155 8.93928 17.8463C7.38743 17.5376 5.96197 16.7757 4.84315 15.6569C3.72433 14.538 2.9624 13.1126 2.65372 11.5607C2.34504 10.0089 2.50347 8.40034 3.10897 6.93853C3.71447 5.47672 4.73985 4.22729 6.05544 3.34824C7.37103 2.46919 8.91775 2 10.5 2C12.621 2.0024 14.6544 2.84603 16.1542 4.3458C17.654 5.84557 18.4976 7.879 18.5 10ZM17.2692 10C17.2692 8.66117 16.8722 7.35241 16.1284 6.23922C15.3846 5.12602 14.3274 4.25839 13.0905 3.74605C11.8536 3.2337 10.4925 3.09965 9.17939 3.36084C7.86629 3.62203 6.66013 4.26674 5.71343 5.21343C4.76674 6.16012 4.12203 7.36629 3.86084 8.67939C3.59965 9.99249 3.7337 11.3536 4.24605 12.5905C4.7584 13.8274 5.62603 14.8846 6.73922 15.6284C7.85241 16.3722 9.16117 16.7692 10.5 16.7692C12.2947 16.7672 14.0153 16.0534 15.2843 14.7843C16.5534 13.5153 17.2672 11.7947 17.2692 10ZM14.0065 11.3132C13.8652 11.2315 13.6972 11.2092 13.5396 11.2513C13.3819 11.2935 13.2474 11.3965 13.1657 11.5378C12.8299 12.1179 12.3146 12.5732 11.6975 12.8351C11.1335 13.0736 10.511 13.1383 9.91003 13.0208C9.30902 12.9032 8.75682 12.6089 8.32423 12.1754C8.1339 11.9851 7.96922 11.7707 7.83439 11.5378C7.75266 11.3965 7.61816 11.2935 7.46047 11.2514C7.30278 11.2092 7.13482 11.2315 6.99354 11.3132C6.85226 11.395 6.74924 11.5295 6.70713 11.6871C6.66502 11.8448 6.68727 12.0128 6.769 12.1541C7.14747 12.8086 7.69145 13.352 8.34634 13.7298C9.00123 14.1076 9.74397 14.3065 10.5 14.3065C11.2561 14.3065 11.9988 14.1076 12.6537 13.7298C13.3086 13.3519 13.8525 12.8085 14.231 12.154C14.3127 12.0127 14.335 11.8448 14.2928 11.6871C14.2507 11.5294 14.1477 11.395 14.0065 11.3132V11.3132Z" fill="currentColor"/>
</g>
</svg>
