<svg width="20" height="20" viewBox="0 0 20 20" fill="none" xmlns="http://www.w3.org/2000/svg">
<path d="M6.30769 8.46154C6.30769 8.27897 6.36183 8.1005 6.46326 7.9487C6.56469 7.7969 6.70886 7.67859 6.87753 7.60873C7.0462 7.53886 7.2318 7.52058 7.41085 7.5562C7.58991 7.59181 7.75439 7.67973 7.88349 7.80882C8.01258 7.93792 8.10049 8.10239 8.13611 8.28145C8.17173 8.46051 8.15345 8.64611 8.08358 8.81478C8.01372 8.98345 7.8954 9.12762 7.74361 9.22905C7.59181 9.33048 7.41334 9.38461 7.23077 9.38461C6.98596 9.38461 6.75117 9.28736 6.57806 9.11425C6.40495 8.94114 6.30769 8.70635 6.30769 8.46154ZM12.7692 9.38461C12.9518 9.38461 13.1303 9.33048 13.2821 9.22905C13.4339 9.12762 13.5522 8.98345 13.622 8.81478C13.6919 8.64611 13.7102 8.46051 13.6746 8.28145C13.639 8.10239 13.551 7.93792 13.4219 7.80882C13.2929 7.67973 13.1284 7.59181 12.9493 7.5562C12.7703 7.52058 12.5847 7.53886 12.416 7.60873C12.2473 7.67859 12.1032 7.7969 12.0017 7.9487C11.9003 8.1005 11.8462 8.27897 11.8462 8.46154C11.8462 8.70635 11.9434 8.94114 12.1165 9.11425C12.2896 9.28736 12.5244 9.38461 12.7692 9.38461ZM18 10C18 11.5822 17.5308 13.129 16.6518 14.4446C15.7727 15.7602 14.5233 16.7855 13.0615 17.391C11.5997 17.9965 9.99113 18.155 8.43928 17.8463C6.88743 17.5376 5.46197 16.7757 4.34315 15.6569C3.22433 14.538 2.4624 13.1126 2.15372 11.5607C1.84504 10.0089 2.00347 8.40034 2.60897 6.93853C3.21447 5.47672 4.23985 4.22729 5.55544 3.34824C6.87103 2.46919 8.41775 2 10 2C12.121 2.0024 14.1544 2.84603 15.6542 4.3458C17.154 5.84557 17.9976 7.879 18 10ZM16.7692 10C16.7692 8.66117 16.3722 7.35241 15.6284 6.23922C14.8846 5.12602 13.8274 4.25839 12.5905 3.74605C11.3536 3.2337 9.99249 3.09965 8.67939 3.36084C7.36629 3.62203 6.16013 4.26674 5.21343 5.21343C4.26674 6.16012 3.62203 7.36629 3.36084 8.67939C3.09965 9.99249 3.2337 11.3536 3.74605 12.5905C4.2584 13.8274 5.12603 14.8846 6.23922 15.6284C7.35241 16.3722 8.66117 16.7692 10 16.7692C11.7947 16.7672 13.5153 16.0534 14.7843 14.7843C16.0534 13.5153 16.7672 11.7947 16.7692 10ZM13.046 12.4924C12.5786 12.0255 12.0102 11.6723 11.3845 11.46C10.7589 11.2478 10.0929 11.1823 9.43786 11.2684C8.78286 11.3546 8.15644 11.5902 7.607 11.957C7.05755 12.3239 6.59979 12.8121 6.26908 13.384C6.22861 13.4539 6.20231 13.5312 6.19169 13.6113C6.18106 13.6914 6.18632 13.7728 6.20717 13.8509C6.22801 13.929 6.26403 14.0022 6.31316 14.0664C6.3623 14.1305 6.42359 14.1844 6.49354 14.2248C6.56349 14.2653 6.64073 14.2916 6.72084 14.3022C6.80095 14.3129 6.88237 14.3076 6.96045 14.2868C7.03853 14.2659 7.11174 14.2299 7.1759 14.1808C7.24006 14.1316 7.29391 14.0703 7.33439 14.0004C7.67022 13.4202 8.18547 12.9649 8.80254 12.7031C9.36654 12.4645 9.98893 12.3998 10.5899 12.5174C11.1909 12.6349 11.7431 12.9292 12.1757 13.3627C12.3661 13.553 12.5308 13.7674 12.6657 14.0004C12.7474 14.1417 12.8819 14.2447 13.0396 14.2868C13.1973 14.3289 13.3653 14.3066 13.5065 14.2249C13.6478 14.1432 13.7508 14.0087 13.793 13.851C13.8351 13.6933 13.8128 13.5254 13.7311 13.3841C13.5425 13.0583 13.3122 12.7585 13.046 12.4924Z" fill="currentColor"/>
</svg>
